<svg xmlns="http://www.w3.org/2000/svg" viewBox="0 0 1200 750" width="1200" height="750" role="img" aria-label="Branding">
  <defs>
    <linearGradient id="bg" x1="0" y1="0" x2="1" y2="1">
      <stop offset="0" stop-color="#0a0f1c"/><stop offset="1" stop-color="#0e1526"/>
    </linearGradient>
    <radialGradient id="g1" cx="0.82" cy="0.16" r="0.7">
      <stop offset="0" stop-color="#6366f1" stop-opacity="0.30"/><stop offset="1" stop-color="#6366f1" stop-opacity="0"/>
    </radialGradient>
    <radialGradient id="g2" cx="0.06" cy="0.98" r="0.6">
      <stop offset="0" stop-color="#22d3ee" stop-opacity="0.14"/><stop offset="1" stop-color="#22d3ee" stop-opacity="0"/>
    </radialGradient>
    <pattern id="dots" width="34" height="34" patternUnits="userSpaceOnUse">
      <circle cx="2" cy="2" r="1.4" fill="#ffffff" fill-opacity="0.05"/>
    </pattern>
  </defs>

  <rect width="1200" height="750" fill="url(#bg)"/>
  <rect width="1200" height="750" fill="url(#dots)"/>
  <rect width="1200" height="750" fill="url(#g1)"/>
  <rect width="1200" height="750" fill="url(#g2)"/>

  <g transform="translate(845,310)">
        <circle r="150" stroke="#6366f1" fill="none" stroke-width="2.5" stroke-linecap="round" stroke-linejoin="round" opacity="0.16"/><circle r="108" stroke="#6366f1" fill="none" stroke-width="2.5" stroke-linecap="round" stroke-linejoin="round" opacity="0.32"/>
        <path d="M-64,-64 L64,-64 L-64,64 L64,64" stroke="#6366f1" fill="none" stroke-width="16" stroke-linecap="round" stroke-linejoin="round" opacity="0.95"/>
        <circle cx="-150" cy="150" r="13" fill="#6366f1"/><circle cx="-110" cy="150" r="13" fill="#22d3ee"/><circle cx="-70" cy="150" r="13" fill="#f4f7fb" opacity="0.85"/>
      </g>

  <!-- marchio Z vettoriale (in alto a destra, niente font) -->
  <g transform="translate(1108,72)">
    <path d="M-20,-20 L20,-20 L-20,20 L20,20" stroke="#6366f1" fill="none" stroke-width="6" stroke-linecap="round" stroke-linejoin="round" opacity="0.9"/>
  </g>

  <!-- cornice/ticks da "dossier" (puro vettoriale) -->
  <g stroke="#ffffff" stroke-opacity="0.12" stroke-width="2" fill="none">
    <path d="M64,52 H110"/><path d="M64,52 V98"/>
  </g>

  <rect x="0" y="746" width="1200" height="4" fill="#6366f1" fill-opacity="0.85"/>
</svg>
