<svg xmlns="http://www.w3.org/2000/svg" viewBox="0 0 1600 1000" width="1600" height="1000">
  <defs>
    <linearGradient id="bg" x1="0" y1="0" x2="1" y2="1">
      <stop offset="0" stop-color="#070b14"/>
      <stop offset="1" stop-color="#0c1322"/>
    </linearGradient>
    <radialGradient id="glow" cx="55%" cy="40%" r="55%">
      <stop offset="0" stop-color="#38bdf8" stop-opacity="0.35"/>
      <stop offset="1" stop-color="#38bdf8" stop-opacity="0"/>
    </radialGradient>
  </defs>
  <rect width="1600" height="1000" fill="url(#bg)"/>
  <rect width="1600" height="1000" fill="url(#glow)"/>
  <g stroke="#38bdf8" stroke-opacity="0.07" stroke-width="1">
    <line x1="0" y1="250" x2="1600" y2="250"/><line x1="0" y1="500" x2="1600" y2="500"/><line x1="0" y1="750" x2="1600" y2="750"/>
    <line x1="400" y1="0" x2="400" y2="1000"/><line x1="800" y1="0" x2="800" y2="1000"/><line x1="1200" y1="0" x2="1200" y2="1000"/>
  </g>
  <!-- network nodes -->
  <g stroke="#38bdf8" stroke-width="2" stroke-opacity="0.5">
    <line x1="800" y1="500" x2="600" y2="350"/><line x1="800" y1="500" x2="1000" y2="350"/>
    <line x1="800" y1="500" x2="560" y2="600"/><line x1="800" y1="500" x2="1040" y2="600"/>
    <line x1="800" y1="500" x2="800" y2="300"/><line x1="600" y1="350" x2="560" y2="600"/>
    <line x1="1000" y1="350" x2="1040" y2="600"/>
  </g>
  <g fill="#38bdf8">
    <circle cx="800" cy="500" r="34"/>
    <circle cx="600" cy="350" r="22" opacity="0.85"/>
    <circle cx="1000" cy="350" r="22" opacity="0.85"/>
    <circle cx="560" cy="600" r="20" opacity="0.8"/>
    <circle cx="1040" cy="600" r="20" opacity="0.8"/>
    <circle cx="800" cy="300" r="18" opacity="0.75"/>
  </g>
  <g fill="#f4f7fb" font-family="Arial" font-size="22" text-anchor="middle">
    <text x="800" y="508">♥</text>
  </g>
  <text x="120" y="160" font-family="ui-monospace,Menlo,monospace" font-size="30" fill="#38bdf8" letter-spacing="6">SOCIAL · CRESCITA</text>
  <text x="120" y="900" font-family="Arial,sans-serif" font-size="56" font-weight="700" fill="#f4f7fb">Gestione Social — Brand Locale</text>
</svg>
